<svg width="196" height="23" viewBox="0 0 196 23" fill="none" xmlns="http://www.w3.org/2000/svg">
<path d="M17.5956 0.999986H1.00559L0.225586 8.73999H0.825586C1.93559 2.22999 2.71559 1.59999 4.57559 1.59999H5.71559V19.24C5.71559 20.68 5.38559 21.25 4.51559 21.46V22H14.1156V21.46C13.2156 21.25 12.8856 20.68 12.8856 19.24V1.59999H14.0256C15.8856 1.59999 16.6356 2.22999 17.7756 8.73999H18.3756L17.5956 0.999986Z" fill="#222222"/>
<path d="M47.9577 0.999986H44.2977V1.50999C45.5877 1.74999 45.7077 2.25999 45.2877 3.63999L42.1077 13.87L38.5977 3.60999C38.1177 2.25999 38.2077 1.74999 39.4977 1.50999V0.999986H17.9877V1.50999C18.8877 1.74999 19.6377 2.25999 20.0877 3.60999L26.2677 22.39H29.8677L33.1677 11.17L36.8577 22.39H40.4577L45.9477 3.63999C46.3677 2.25999 47.0877 1.74999 47.9577 1.50999V0.999986ZM28.0077 3.60999C27.5877 2.34999 27.6177 1.80999 28.7277 1.53999C29.5677 1.80999 30.2577 2.34999 30.6777 3.60999L32.7477 9.90999L31.5177 13.87L28.0077 3.60999Z" fill="#222222"/>
<path d="M63.0763 13.93C62.1463 20.77 61.2163 21.4 59.4163 21.4H55.9663V11.11H58.2163C59.8663 11.11 60.0163 11.41 60.4063 14.89H61.0363L60.4063 7.05999H59.8063C59.9863 10.21 59.7463 10.51 58.3063 10.51H55.9663V1.59999H59.0263C61.0363 1.59999 61.7563 2.22999 62.6863 8.73999H63.2863L62.5063 0.999986H47.5963V1.50999C48.4963 1.74999 48.8263 2.31999 48.8263 3.75999V19.24C48.8263 20.68 48.4963 21.25 47.5963 21.46V22H62.9263L63.6763 13.93H63.0763Z" fill="#222222"/>
<path d="M79.2564 13.93C78.3264 20.77 77.3964 21.4 75.5964 21.4H72.1464V11.11H74.3964C76.0464 11.11 76.1964 11.41 76.5864 14.89H77.2164L76.5864 7.05999H75.9864C76.1664 10.21 75.9264 10.51 74.4864 10.51H72.1464V1.59999H75.2064C77.2164 1.59999 77.9364 2.22999 78.8664 8.73999H79.4664L78.6864 0.999986H63.7764V1.50999C64.6764 1.74999 65.0064 2.31999 65.0064 3.75999V19.24C65.0064 20.68 64.6764 21.25 63.7764 21.46V22H79.1064L79.8564 13.93H79.2564Z" fill="#222222"/>
<path d="M96.9664 0.999986H93.9064V1.50999C94.7764 1.74999 95.1364 2.31999 95.1364 3.75999V14.5L89.0764 0.999986H79.9564V1.50999C80.3764 1.65999 80.7964 1.86999 81.2164 2.28999V19.24C81.2164 20.68 80.8865 21.25 79.9865 21.46V22H83.0464V21.46C82.1764 21.25 81.8164 20.68 81.8164 19.24V3.09999C81.8764 3.21999 81.9664 3.36999 82.0264 3.51999L90.2464 22H95.7365V3.75999C95.7365 2.31999 96.0664 1.74999 96.9664 1.50999V0.999986Z" fill="#222222"/>
<path d="M113.906 0.999986H97.3161L96.5361 8.73999H97.1361C98.2461 2.22999 99.0261 1.59999 100.886 1.59999H102.026V19.24C102.026 20.68 101.696 21.25 100.826 21.46V22H110.426V21.46C109.526 21.25 109.196 20.68 109.196 19.24V1.59999H110.336C112.196 1.59999 112.946 2.22999 114.086 8.73999H114.686L113.906 0.999986Z" fill="#222222"/>
<path d="M133.528 0.999986H129.838V1.50999C131.128 1.74999 131.158 2.22999 130.648 3.57999L127.738 11.17L124.768 3.57999C124.258 2.22999 124.258 1.74999 125.578 1.50999V0.999986H114.328V1.50999C115.228 1.74999 116.068 2.22999 116.638 3.54999L120.838 13.57V19.24C120.838 20.68 120.508 21.25 119.608 21.46V22H129.208V21.46C128.338 21.25 127.978 20.68 127.978 19.24V12.28L131.308 3.57999C131.818 2.22999 132.628 1.74999 133.528 1.50999V0.999986Z" fill="#222222"/>
<path d="M141.304 22.39C146.764 22.39 151.534 19.48 151.534 11.5C151.534 3.51999 146.734 0.609985 141.304 0.609985C135.874 0.609985 131.074 3.54999 131.074 11.5C131.074 19.45 135.874 22.39 141.304 22.39ZM141.304 21.79C139.384 21.79 138.814 19.81 138.814 11.5C138.814 3.21999 139.384 1.20999 141.304 1.20999C143.224 1.20999 143.794 3.18999 143.794 11.5C143.794 19.81 143.224 21.79 141.304 21.79Z" fill="#222222"/>
<path d="M168.454 0.999986H165.394V1.50999C166.264 1.74999 166.624 2.31999 166.624 3.75999V14.5L160.564 0.999986H151.444V1.50999C151.864 1.65999 152.284 1.86999 152.704 2.28999V19.24C152.704 20.68 152.374 21.25 151.474 21.46V22H154.534V21.46C153.664 21.25 153.304 20.68 153.304 19.24V3.09999C153.364 3.21999 153.454 3.36999 153.514 3.51999L161.734 22H167.224V3.75999C167.224 2.31999 167.554 1.74999 168.454 1.50999V0.999986Z" fill="#222222"/>
<path d="M183.954 13.93C183.024 20.77 182.094 21.4 180.294 21.4H176.844V11.11H179.094C180.744 11.11 180.894 11.41 181.284 14.89H181.914L181.284 7.05999H180.684C180.864 10.21 180.624 10.51 179.184 10.51H176.844V1.59999H179.904C181.914 1.59999 182.634 2.22999 183.564 8.73999H184.164L183.384 0.999986H168.474V1.50999C169.374 1.74999 169.704 2.31999 169.704 3.75999V19.24C169.704 20.68 169.374 21.25 168.474 21.46V22H183.804L184.554 13.93H183.954Z" fill="#222222"/>
<path d="M189.991 0.609985C187.081 0.609985 184.801 2.79999 184.801 6.09999C184.801 9.39999 187.081 11.59 189.991 11.59C192.931 11.59 195.211 9.39999 195.211 6.09999C195.211 2.79999 192.931 0.609985 189.991 0.609985ZM189.991 10.99C187.411 10.99 185.401 9.06999 185.401 6.09999C185.401 3.12999 187.411 1.20999 189.991 1.20999C192.601 1.20999 194.611 3.12999 194.611 6.09999C194.611 9.03999 192.601 10.99 189.991 10.99ZM192.211 7.38999C192.091 6.39999 191.821 5.94999 190.861 5.76999C191.611 5.61999 192.211 5.13999 192.211 4.29999C192.211 3.15999 191.251 2.76999 190.201 2.76999C189.511 2.76999 189.061 2.91999 188.101 2.91999H187.531V3.09999C187.831 3.18999 187.951 3.36999 187.951 3.87999V8.07999C187.951 8.55999 187.831 8.76999 187.531 8.85999V9.03999H190.021V8.85999C189.721 8.76999 189.601 8.55999 189.601 8.07999V5.79999C189.751 5.85999 189.901 5.85999 190.021 5.85999H190.051C190.351 5.88999 190.411 6.36999 190.561 7.35999C190.711 8.70999 190.831 9.03999 192.811 9.03999V8.55999C192.391 8.55999 192.331 8.31999 192.211 7.38999ZM189.931 5.64999C189.811 5.64999 189.691 5.64999 189.601 5.61999V3.06999C189.721 3.03999 189.811 3.00999 189.931 3.00999C190.291 3.00999 190.501 3.39999 190.501 4.29999C190.501 4.98999 190.351 5.64999 189.931 5.64999Z" fill="#222222"/>
</svg>
