<svg width="94" height="20" viewBox="0 0 94 20" fill="none" xmlns="http://www.w3.org/2000/svg">
<path d="M18.228 0.259999H0.84V4.18H7.308V20H11.788V4.18H18.228V0.259999ZM33.8986 4.18V0.259999H20.4586V4.18H24.9386V16.08H20.4586V20H33.8986V16.08H29.4186V4.18H33.8986ZM53.5288 0.259999H36.1408V4.18H42.6088V20H47.0888V4.18H53.5288V0.259999ZM67.6561 20H72.1921L66.4801 0.259999H57.2401L51.5561 20H56.0921L57.8561 13.672H65.8641L67.6561 20ZM58.9481 9.752L61.3001 1.38H62.4201L64.7721 9.752H58.9481ZM74.1683 20H78.6483V4.18L77.8083 1.38H78.9283L84.8923 20H93.7123V0.259999H89.2323V16.08L90.0723 18.88H88.9523L82.9883 0.259999H74.1683V20Z" fill="#020503"/>
</svg>
